<svg width="54" height="54" viewBox="0 0 54 54" fill="none" xmlns="http://www.w3.org/2000/svg">
<path d="M38.6665 6.44444H15.3331C12.5336 6.44444 9.84879 7.55654 7.86924 9.53609C5.88969 11.5156 4.77759 14.2005 4.77759 17V37C4.77759 38.3862 5.05062 39.7588 5.58108 41.0394C6.11155 42.3201 6.88906 43.4837 7.86924 44.4639C9.84879 46.4435 12.5336 47.5555 15.3331 47.5555H38.6665C41.4642 47.5497 44.1456 46.4357 46.1239 44.4574C48.1022 42.4791 49.2162 39.7977 49.222 37V17C49.2162 14.2023 48.1022 11.5209 46.1239 9.54258C44.1456 7.5643 41.4642 6.45031 38.6665 6.44444ZM30.5554 24.9333C29.462 25.5569 28.2251 25.8848 26.9665 25.8848C25.7078 25.8848 24.4709 25.5569 23.3776 24.9333L8.15537 16.2C8.35219 14.434 9.19316 12.8025 10.5174 11.6177C11.8416 10.4329 13.5562 9.77778 15.3331 9.77778H38.6665C40.442 9.78264 42.154 10.4394 43.4772 11.6233C44.8004 12.8073 45.6427 14.4359 45.8442 16.2L30.5554 24.9333Z" fill="white"/>
</svg>
