<svg width="45" height="44" viewBox="0 0 45 44" fill="none" xmlns="http://www.w3.org/2000/svg">
<rect x="1" y="0.5" width="43" height="43" rx="21.5" stroke="#F3F4F6"/>
<g clip-path="url(#clip0_2_1910)">
<path fill-rule="evenodd" clip-rule="evenodd" d="M32.1 22.2273C32.1 21.5182 32.0364 20.8364 31.9182 20.1818H22.5V24.05H27.8818C27.65 25.3 26.9455 26.3591 25.8864 27.0682V29.5773H29.1182C31.0091 27.8364 32.1 25.2727 32.1 22.2273Z" fill="#4285F4"/>
<path fill-rule="evenodd" clip-rule="evenodd" d="M22.5 32C25.2 32 27.4636 31.1045 29.1182 29.5773L25.8864 27.0682C24.9909 27.6682 23.8455 28.0227 22.5 28.0227C19.8955 28.0227 17.6909 26.2636 16.9045 23.9H13.5636V26.4909C15.2091 29.7591 18.5909 32 22.5 32Z" fill="#34A853"/>
<path fill-rule="evenodd" clip-rule="evenodd" d="M16.9045 23.9C16.7045 23.3 16.5909 22.6591 16.5909 22C16.5909 21.3409 16.7045 20.7 16.9045 20.1V17.5091H13.5636C12.8864 18.8591 12.5 20.3864 12.5 22C12.5 23.6136 12.8864 25.1409 13.5636 26.4909L16.9045 23.9Z" fill="#FBBC05"/>
<path fill-rule="evenodd" clip-rule="evenodd" d="M22.5 15.9773C23.9682 15.9773 25.2864 16.4818 26.3227 17.4727L29.1909 14.6045C27.4591 12.9909 25.1955 12 22.5 12C18.5909 12 15.2091 14.2409 13.5636 17.5091L16.9045 20.1C17.6909 17.7364 19.8955 15.9773 22.5 15.9773Z" fill="#EA4335"/>
</g>
<defs>
<clipPath id="clip0_2_1910">
<rect x="12.5" y="12" width="20" height="20" rx="6" fill="white"/>
</clipPath>
</defs>
</svg>
