<svg width="14" height="14" viewBox="0 0 14 14" fill="none" xmlns="http://www.w3.org/2000/svg">
<g clip-path="url(#clip0_1_511)">
<path d="M4.97814 0.771853C3.64593 1.23401 2.49704 2.11119 1.70021 3.27456C0.903388 4.43793 0.500631 5.82617 0.5511 7.23536C0.60157 8.64455 1.10261 10.0004 1.98062 11.1038C2.85862 12.2072 4.06733 12.9999 5.42918 13.3656C6.53327 13.6505 7.69002 13.663 8.80002 13.4021C9.80556 13.1762 10.7352 12.6931 11.4979 12C12.2918 11.2566 12.868 10.3109 13.1646 9.26456C13.4869 8.1267 13.5443 6.93012 13.3323 5.76664H7.13231V8.33852H10.7229C10.6512 8.74871 10.4974 9.14022 10.2708 9.48959C10.0442 9.83897 9.74945 10.139 9.40418 10.3719C8.96578 10.662 8.4715 10.8572 7.95314 10.9448C7.43329 11.0415 6.90007 11.0415 6.38022 10.9448C5.8533 10.836 5.35485 10.6185 4.91668 10.3062C4.21267 9.80788 3.68405 9.0999 3.40626 8.28331C3.12386 7.45142 3.12386 6.54958 3.40626 5.71769C3.604 5.13458 3.93088 4.60366 4.36251 4.16456C4.85646 3.65284 5.48182 3.28706 6.16997 3.10735C6.85812 2.92764 7.58247 2.94095 8.26356 3.14581C8.79564 3.30906 9.28219 3.59443 9.68439 3.97914C10.0893 3.57637 10.4934 3.17255 10.8969 2.76769C11.1052 2.54998 11.3323 2.34269 11.5375 2.11977C10.9235 1.54843 10.2028 1.10384 9.41668 0.811436C7.98512 0.291634 6.41874 0.277665 4.97814 0.771853Z" fill="white"/>
<path d="M4.9779 0.771871C6.41838 0.277347 7.98476 0.290948 9.41644 0.810412C10.2027 1.1048 10.9231 1.55154 11.5362 2.125C11.3279 2.34791 11.1081 2.55625 10.8956 2.77291C10.4914 3.17638 10.0876 3.57847 9.68415 3.97916C9.28195 3.59445 8.7954 3.30908 8.26331 3.14583C7.58245 2.94025 6.85813 2.92617 6.16979 3.10514C5.48146 3.28412 4.85572 3.64923 4.36123 4.16041C3.9296 4.59951 3.60272 5.13043 3.40498 5.71354L1.24561 4.04166C2.01853 2.50891 3.3568 1.33648 4.9779 0.771871Z" fill="#E33629"/>
<path d="M0.672865 5.69788C0.788844 5.12264 0.981538 4.56558 1.24578 4.04163L3.40516 5.71767C3.12275 6.54956 3.12275 7.4514 3.40516 8.28329C2.68571 8.83885 1.96592 9.39718 1.24578 9.95829C0.58448 8.64195 0.382795 7.14215 0.672865 5.69788Z" fill="#F8BD00"/>
<path d="M7.1323 5.76562H13.3323C13.5443 6.9291 13.4869 8.12568 13.1646 9.26354C12.868 10.3099 12.2918 11.2556 11.4979 11.999C10.801 11.4552 10.101 10.9156 9.40417 10.3719C9.74967 10.1388 10.0446 9.83843 10.2712 9.48868C10.4978 9.13893 10.6514 8.74702 10.7229 8.33646H7.1323C7.13126 7.48021 7.1323 6.62292 7.1323 5.76562Z" fill="#587DBD"/>
<path d="M1.24463 9.95833C1.96477 9.40277 2.68456 8.84444 3.404 8.28333C3.68234 9.1002 4.21172 9.80821 4.9165 10.3062C5.35604 10.617 5.85556 10.8327 6.38317 10.9396C6.90302 11.0363 7.43624 11.0363 7.95609 10.9396C8.47445 10.852 8.96873 10.6568 9.40713 10.3667C10.104 10.9104 10.804 11.45 11.5009 11.9937C10.7383 12.6872 9.80861 13.1707 8.80296 13.3969C7.69297 13.6578 6.53622 13.6453 5.43213 13.3604C4.5589 13.1273 3.74325 12.7162 3.0363 12.1531C2.2881 11.559 1.67696 10.8103 1.24463 9.95833Z" fill="#319F43"/>
</g>
<defs>
<clipPath id="clip0_1_511">
<rect width="13.3333" height="13.3333" fill="white" transform="translate(0.333252 0.333313)"/>
</clipPath>
</defs>
</svg>
