<svg width="54" height="54" viewBox="0 0 54 54" fill="none" xmlns="http://www.w3.org/2000/svg">
<path d="M18.1111 22.5555V15.8888C18.1089 13.7238 18.8971 11.6324 20.3275 10.0072C21.7579 8.38203 23.7323 7.33477 25.8801 7.062C28.0279 6.78923 30.2014 7.30971 31.9926 8.52575C33.7839 9.7418 35.0697 11.5698 35.6089 13.6666" stroke="white" stroke-width="4.93827" stroke-linecap="round"/>
<path d="M11.4443 22.5555H42.5554V42.5555C42.5554 43.7343 42.0872 44.8647 41.2537 45.6982C40.4202 46.5317 39.2897 47 38.111 47H15.8888C14.71 47 13.5796 46.5317 12.7461 45.6982C11.9126 44.8647 11.4443 43.7343 11.4443 42.5555V22.5555Z" stroke="white" stroke-width="4.93827" stroke-linejoin="round"/>
<path d="M32.5554 34.7777H32.5774V34.7998H32.5554V34.7777Z" stroke="white" stroke-width="7.40741" stroke-linejoin="round"/>
</svg>
